# xmcd
# 
# Track frame offsets:
#     150
#     30137
#     52517
#     70252
#     96840
#     115460
#     132840
#     155535
#     180602
#     203062
#     223292
#     246800
#     270165
# 
# Disc length: 3904
# 
# Revision: 7
# Processed by: cddbd v1.5.2PL0 Copyright (c) Steve Scherf et al.
# Submitted via: fre:ac v1.0.17
# 
DISCID=ab0f3e0d
DTITLE=TOTO - Past To Present 1977-1990
DYEAR=1990
DGENRE=Rock
TTITLE0=Love Has The Power
TTITLE1=Africa
TTITLE2=Hold The Line
TTITLE3=Out Of Love
TTITLE4=Georgy Porgy
TTITLE5=I'll Be Over You
TTITLE6=Can You Hear What I'm Saying
TTITLE7=Rosanna
TTITLE8=I Won't Hold You Back
TTITLE9=Stop Loving You
TTITLE10=99
TTITLE11=Pamela
TTITLE12=Animal
EXTD=YEAR: 1990
EXTT0=
EXTT1=
EXTT2=
EXTT3=
EXTT4=
EXTT5=
EXTT6=
EXTT7=
EXTT8=
EXTT9=
EXTT10=
EXTT11=
EXTT12=
PLAYORDER=
